<?xml version="1.0" standalone="no"?>
<!DOCTYPE svg PUBLIC "-//W3C//DTD SVG 20010904//EN"
 "http://www.w3.org/TR/2001/REC-SVG-20010904/DTD/svg10.dtd">
<svg version="1.0" xmlns="http://www.w3.org/2000/svg"
 width="1254.000000pt" height="1254.000000pt" viewBox="0 0 1254.000000 1254.000000"
 preserveAspectRatio="xMidYMid meet">

<g transform="translate(0.000000,1254.000000) scale(0.100000,-0.100000)"
fill="#000000" stroke="none">
<path d="M5660 10550 c-952 -62 -1858 -485 -2540 -1186 -303 -311 -502 -589
-684 -954 -204 -410 -320 -813 -378 -1315 -19 -168 -16 -646 6 -825 46 -379
142 -748 277 -1068 79 -187 320 -641 339 -642 4 0 11 15 18 32 6 18 30 57 53
87 23 31 39 60 36 70 -3 9 -37 89 -76 178 -249 576 -363 1146 -348 1748 15
600 126 1059 382 1580 137 279 277 496 472 731 573 690 1356 1187 2244 1424
223 59 518 117 679 131 8 1 -10 5 -40 9 -68 10 -288 9 -440 0z"/>
<path d="M6540 10551 l-65 -8 58 -1 c67 -2 267 -32 412 -62 780 -160 1502
-554 2080 -1135 316 -317 560 -656 755 -1048 270 -541 390 -1081 390 -1752 0
-371 -52 -757 -146 -1086 -19 -67 -33 -124 -30 -126 2 -3 11 22 20 54 9 32 21
68 26 80 13 32 78 330 90 415 33 227 41 311 50 478 20 382 -20 808 -111 1190
-118 498 -387 1039 -721 1450 -29 36 -37 57 -16 44 7 -4 8 -3 4 5 -4 6 -11 9
-16 6 -4 -3 -50 43 -101 102 -101 115 -214 231 -349 358 -47 44 -85 84 -85 90
-1 5 -6 9 -13 8 -6 -2 -73 45 -148 103 -331 255 -651 434 -1074 602 -207 82
-572 179 -785 207 -71 10 -132 20 -135 23 -3 2 42 1 100 -3 58 -4 130 -7 160
-6 132 4 523 -51 729 -104 127 -32 419 -129 516 -170 770 -332 1434 -931 1865
-1685 52 -92 156 -309 195 -410 68 -176 84 -215 85 -204 0 6 -11 42 -24 80
-182 533 -581 1123 -1033 1527 -639 570 -1288 868 -2098 962 -149 17 -489 27
-585 16z"/>
<path d="M5295 9180 c-528 -207 -1132 -444 -1342 -526 -210 -82 -383 -152
-383 -155 0 -4 30 -18 68 -32 37 -14 93 -35 125 -47 l57 -21 0 -338 0 -338
-25 -23 c-52 -49 -55 -124 -8 -181 l25 -30 -26 -162 c-15 -89 -39 -250 -55
-357 -34 -228 -37 -219 72 -252 85 -25 152 -21 233 16 l57 26 -7 63 c-3 34
-29 198 -57 364 l-50 303 25 33 c45 59 27 164 -33 197 -20 10 -21 18 -21 315
0 184 4 305 9 305 21 0 981 -371 1256 -485 362 -151 699 -311 934 -445 68 -38
125 -70 126 -70 1 0 51 27 111 61 352 197 841 421 1544 706 122 50 276 114
640 267 69 29 178 75 243 101 65 26 114 51 110 55 -4 4 -143 60 -308 123 -887
343 -1915 743 -2178 848 -82 32 -156 59 -165 58 -9 -1 -449 -171 -977 -379z"/>
<path d="M10280 7945 c0 -3 13 -49 29 -103 52 -175 107 -465 132 -692 18 -156
18 -705 1 -830 -63 -453 -191 -901 -361 -1265 -21 -44 -46 -98 -56 -120 -28
-59 -66 -115 -76 -110 -12 8 -31 -33 -25 -53 3 -9 -5 -35 -19 -57 -36 -61 -75
-133 -75 -142 0 -34 214 366 291 542 176 407 261 711 326 1165 26 181 26 737
0 930 -37 272 -78 473 -139 673 -17 57 -28 81 -28 62z"/>
<path d="M4680 7660 l0 -270 43 0 c71 0 293 -29 426 -55 271 -54 566 -173 776
-313 61 -41 149 -115 226 -189 l125 -122 70 70 c343 350 853 575 1397 615 l97
7 0 264 c0 249 -1 265 -17 258 -10 -4 -76 -29 -148 -55 -412 -153 -829 -346
-1219 -562 -155 -86 -183 -98 -200 -88 -251 157 -698 377 -1053 519 -188 75
-500 191 -513 191 -6 0 -10 -95 -10 -270z"/>
<path d="M7800 7223 c-275 -22 -622 -147 -848 -307 -352 -248 -606 -636 -692
-1057 -124 -606 92 -1246 550 -1631 159 -134 360 -252 522 -308 l67 -23 68 40
c37 22 138 75 223 118 85 42 156 78 157 79 3 3 -42 141 -84 259 l-28 78 -102
34 c-121 41 -160 59 -273 133 -210 136 -371 363 -443 626 -19 71 -22 105 -21
266 0 171 2 192 27 273 32 102 75 201 119 272 272 430 818 614 1296 435 79
-30 119 -52 207 -115 l80 -57 152 158 c84 88 189 198 233 245 l80 87 -67 53
c-324 256 -763 378 -1223 342z m466 -27 c144 -25 329 -82 453 -142 104 -49
263 -148 333 -207 l28 -23 -58 -57 c-31 -31 -61 -57 -67 -57 -5 0 -10 -4 -10
-10 0 -16 -215 -240 -228 -237 -7 1 -11 -3 -10 -9 1 -6 -18 -33 -42 -59 l-43
-48 -49 40 c-105 87 -249 155 -388 183 -308 63 -614 -5 -880 -194 -73 -52
-191 -175 -241 -251 -20 -30 -40 -52 -45 -50 -4 3 -13 -5 -19 -17 -11 -22 -10
-22 4 -4 23 29 19 12 -9 -42 -14 -26 -39 -81 -55 -122 -16 -41 -29 -65 -30
-52 0 12 -4 22 -10 22 -9 0 -13 -12 -23 -65 -3 -15 -6 -12 -14 15 l-11 35 -1
-32 c-1 -17 3 -43 9 -58 5 -14 6 -24 1 -21 -5 3 -11 -1 -15 -9 -3 -8 -1 -15 4
-15 6 0 10 -9 10 -20 0 -23 -10 -26 -29 -7 -11 9 -11 7 0 -10 23 -39 36 -35
44 14 4 25 11 55 16 67 8 18 9 17 4 -7 -11 -56 -24 -173 -26 -227 -1 -43 -3
-49 -9 -30 l-8 25 -1 -27 c-1 -33 -14 -36 -34 -8 l-14 21 -6 -22 c-5 -17 -11
-20 -31 -15 -22 5 -26 3 -26 -14 0 -12 9 -24 24 -30 13 -5 27 -15 32 -22 4 -7
4 -10 0 -6 -10 8 -40 -20 -49 -44 -4 -10 -14 -18 -24 -18 -20 1 -53 23 -53 35
0 4 6 2 14 -4 10 -9 16 -8 26 4 9 10 9 15 1 15 -6 0 -11 -5 -11 -11 0 -6 -5
-7 -12 -2 -7 4 -19 8 -27 8 -8 0 -16 6 -19 14 -3 8 0 11 6 7 13 -8 25 22 15
37 -10 16 -13 37 -5 36 19 -3 33 2 28 10 -3 4 -17 7 -32 5 -14 -1 -23 0 -21 3
10 10 -27 41 -45 38 -15 -3 -16 -1 -8 15 13 24 -13 35 -34 15 -8 -8 -26 -19
-40 -25 -29 -11 -34 -34 -11 -47 13 -8 12 -13 -3 -44 -21 -44 -54 -70 -72 -59
-11 7 -11 12 -2 23 15 18 -6 68 -28 65 -24 -4 -40 11 -40 37 0 15 -7 26 -20
30 -11 3 -20 15 -20 25 0 10 -13 28 -30 40 -28 20 -30 26 -30 80 0 61 20 176
45 265 8 28 19 69 25 93 6 24 19 50 29 59 10 8 16 23 14 33 -6 23 99 243 132
276 14 14 25 30 25 35 0 15 61 105 106 157 25 30 39 40 44 31 6 -8 14 -7 34 7
26 20 33 34 16 34 -23 0 -7 30 38 71 285 265 607 413 1005 464 134 17 371 13
503 -9z m-1359 -1408 c-3 -8 -6 -5 -6 6 -1 11 2 17 5 13 3 -3 4 -12 1 -19z
m-650 -277 c-3 -11 5 -29 20 -45 13 -14 21 -31 18 -36 -3 -6 4 -10 17 -9 13 0
17 3 11 6 -17 6 -16 23 1 23 8 0 15 -16 19 -41 3 -23 11 -46 19 -50 13 -9 11
-10 -14 -13 -7 -1 -12 -9 -12 -18 1 -13 -3 -15 -15 -10 -28 14 -45 8 -51 -18
-10 -43 -20 2 -26 121 -4 80 -2 109 7 109 6 0 9 -8 6 -19z m136 -71 c-3 -11
-11 -20 -18 -20 -8 0 -16 -8 -18 -17 -3 -10 -5 -2 -6 17 0 23 2 30 8 22 7 -11
9 -11 14 2 9 23 26 20 20 -4z m127 -60 c10 -19 10 -20 -9 -8 -22 13 -28 28
-11 28 5 0 14 -9 20 -20z m444 -295 c4 -11 -1 -5 -12 14 -12 21 -22 30 -26 23
-10 -16 -76 -11 -76 6 0 6 -7 12 -16 12 -11 0 -14 5 -10 16 3 8 -1 22 -9 30
-8 9 -15 20 -15 25 0 6 7 3 16 -5 21 -22 33 -20 27 4 -3 11 0 20 6 20 6 0 11
7 11 15 0 8 7 15 15 15 9 0 15 9 15 23 1 12 16 -23 34 -78 18 -55 37 -109 40
-120z m-697 163 c-3 -8 -6 -5 -6 6 -1 11 2 17 5 13 3 -3 4 -12 1 -19z m762
-280 c25 -44 32 -62 17 -44 -15 18 -26 24 -30 17 -4 -6 -23 -10 -41 -9 -19 1
-37 -1 -41 -5 -4 -3 -15 9 -25 28 -23 42 -24 51 -5 35 12 -9 18 -7 33 9 9 12
23 21 30 21 7 0 13 5 13 10 0 20 9 9 49 -62z m-525 -177 c7 -20 5 -23 -8 -18
-11 5 -16 1 -16 -13 0 -11 -5 -20 -11 -20 -6 0 -9 -6 -6 -13 3 -8 2 -20 -3
-27 -8 -14 -22 7 -53 83 -14 33 -14 37 0 37 9 0 13 -6 9 -15 -3 -9 0 -15 10
-15 10 0 13 7 8 25 -4 15 -2 25 5 25 6 0 11 -4 11 -10 0 -5 7 -10 16 -10 14 0
14 3 4 15 -9 10 -9 15 -1 15 6 0 12 8 12 18 1 9 5 1 8 -18 4 -19 11 -46 15
-59z m-104 67 c0 -4 -4 -8 -9 -8 -6 0 -12 4 -15 8 -3 5 1 9 9 9 8 0 15 -4 15
-9z m22 -20 c-9 -9 -12 -7 -12 12 0 19 3 21 12 12 9 -9 9 -15 0 -24z m920
-204 c77 -50 108 -74 70 -55 -12 7 -28 9 -34 5 -6 -4 -8 -3 -4 4 7 11 -63 59
-79 54 -5 -2 -7 0 -3 3 10 10 -99 98 -123 100 -29 2 -58 33 -52 56 3 10 -1 27
-8 37 -7 9 26 -22 74 -69 47 -48 119 -108 159 -135z m305 -146 c63 -19 70 -23
55 -35 -26 -19 -49 -15 -70 12 -11 14 -26 25 -33 25 -8 1 -25 8 -39 16 -18 11
-19 13 -5 9 11 -3 52 -16 92 -27z m127 -171 c6 -24 4 -28 -10 -25 -20 4 -35
48 -27 79 6 22 6 22 18 -2 7 -13 15 -37 19 -52z m49 -152 c4 -22 -1 -29 -34
-45 -48 -25 -54 -25 -31 -2 9 11 20 17 25 15 4 -2 7 3 7 11 0 9 5 16 11 16 6
0 9 9 6 20 -3 11 -2 18 3 15 4 -3 10 -16 13 -30z m-273 -160 c0 -2 -10 -9 -22
-15 -22 -11 -22 -10 -4 4 21 17 26 19 26 11z m-206 -40 c8 -8 19 -15 24 -15 5
0 12 -9 15 -20 5 -19 5 -19 -47 0 -28 11 -53 20 -55 20 -2 0 2 7 9 15 7 8 18
15 26 15 7 0 19 -7 28 -15z"/>
<path d="M6880 6820 c0 -5 7 -10 16 -10 8 0 12 5 9 10 -3 6 -10 10 -16 10 -5
0 -9 -4 -9 -10z"/>
<path d="M8300 6560 c0 -5 5 -10 11 -10 5 0 7 5 4 10 -3 6 -8 10 -11 10 -2 0
-4 -4 -4 -10z"/>
<path d="M6729 5628 c-1 -7 -1 -21 0 -30 1 -10 -3 -18 -8 -18 -6 0 -11 9 -11
20 0 11 -7 20 -15 20 -17 0 -20 -25 -5 -35 6 -3 10 -19 10 -36 0 -24 -4 -29
-25 -29 -16 0 -25 -6 -25 -15 0 -8 5 -15 10 -15 6 0 10 5 10 10 0 6 5 10 11
10 5 0 8 -4 5 -9 -3 -5 5 -11 19 -13 27 -6 34 6 10 16 -25 9 -1 46 25 39 14
-4 20 0 20 11 0 9 6 25 12 36 11 16 9 22 -7 34 -25 19 -35 20 -36 4z"/>
<path d="M6802 5580 c0 -14 2 -19 5 -12 2 6 2 18 0 25 -3 6 -5 1 -5 -13z"/>
<path d="M6618 5558 c9 -9 15 -9 24 0 9 9 7 12 -12 12 -19 0 -21 -3 -12 -12z"/>
<path d="M4180 7061 c0 -5 9 -68 20 -141 25 -165 25 -174 -1 -227 -40 -83
-198 -143 -340 -129 l-69 7 2 -1077 3 -1077 55 -20 c278 -101 843 -338 1027
-431 l73 -36 569 0 569 0 4 255 c2 141 1 278 0 305 l-4 50 -794 0 -794 0 0
340 0 340 635 0 635 0 0 290 0 290 -635 0 -635 0 0 335 0 335 795 0 795 0 0
104 0 104 -85 80 c-94 89 -207 168 -332 230 -176 89 -105 82 -840 82 -370 0
-653 -4 -653 -9z"/>
<path d="M7958 5855 c-125 -46 -191 -181 -153 -311 42 -146 216 -224 348 -158
99 50 150 128 150 229 0 70 -18 117 -64 170 -66 75 -186 105 -281 70z"/>
<path d="M8845 5604 c-250 -88 -517 -269 -717 -483 l-81 -88 -57 66 c-132 152
-352 322 -540 416 -68 34 -240 105 -256 105 -3 0 18 -27 48 -61 358 -407 539
-730 703 -1252 20 -65 40 -117 44 -115 4 2 42 18 83 37 l77 34 12 51 c17 74
84 266 131 376 134 316 307 582 542 830 82 88 101 110 90 110 -5 -1 -40 -12
-79 -26z"/>
<path d="M9935 5183 c-36 -101 -106 -266 -159 -372 l-43 -86 25 -25 24 -25
-17 28 c-17 27 -17 29 15 95 92 188 198 448 187 459 -2 2 -17 -31 -32 -74z"/>
<path d="M9795 4640 c9 -16 18 -30 21 -30 2 0 -2 14 -11 30 -9 17 -18 30 -21
30 -2 0 2 -13 11 -30z"/>
<path d="M2874 4442 c-20 -42 -44 -98 -55 -124 l-18 -47 37 -10 c20 -6 60 -15
87 -22 240 -56 660 -183 963 -290 331 -117 343 -122 339 -125 -1 -2 -61 12
-132 31 -152 41 -593 140 -815 184 -407 80 -893 162 -902 153 -3 -4 -44 -95
-91 -204 l-84 -196 156 -7 c1354 -57 2334 -229 3056 -537 255 -109 568 -278
703 -380 30 -22 55 -38 57 -36 5 5 -231 222 -335 308 -289 241 -654 472 -1085
685 -488 241 -894 397 -1625 625 -91 28 -177 55 -192 60 -27 9 -29 7 -64 -68z"/>
<path d="M9593 4508 c13 -11 67 -117 67 -133 0 -2 -16 11 -35 31 -19 19 -51
45 -71 59 l-36 24 27 7 c14 3 24 9 21 11 -6 6 -132 -30 -384 -108 -731 -228
-1392 -520 -1922 -849 -174 -108 -385 -258 -376 -267 2 -3 28 13 58 34 29 22
73 53 98 70 l46 31 -2 -25 c0 -15 -11 -31 -28 -42 -15 -10 -28 -22 -27 -27 0
-5 -7 -8 -16 -6 -8 2 -12 -1 -9 -6 8 -13 -71 -55 -86 -46 -30 19 -57 8 -133
-54 -128 -103 -443 -396 -405 -376 8 4 35 22 60 40 155 110 471 277 740 389
514 216 1242 380 2035 460 228 22 686 53 913 61 111 3 202 10 202 15 0 5 -23
64 -51 131 -28 68 -64 155 -79 193 -16 39 -35 71 -44 73 -21 5 -647 -100 -921
-154 -336 -66 -607 -131 -1010 -240 -60 -17 -89 -18 -80 -3 4 6 9 8 12 5 2 -2
13 4 24 15 10 10 29 19 42 18 16 -1 13 -4 -13 -12 -21 -6 -29 -12 -19 -14 9
-2 144 43 300 100 294 108 471 166 719 237 168 48 464 120 491 120 11 0 19 3
19 7 0 3 -25 60 -57 125 -35 75 -62 118 -72 118 -13 0 -12 -2 2 -12z m-903
-502 c0 -2 -20 -11 -45 -19 -52 -18 -60 -14 -12 7 32 14 57 20 57 12z m-570
-36 c-20 -13 -33 -13 -25 0 3 6 14 10 23 10 15 0 15 -2 2 -10z m-187 -91 c-6
-6 -19 -9 -29 -6 -17 3 -16 5 6 14 28 12 39 8 23 -8z m427 1 c-8 -5 -19 -10
-25 -10 -5 0 -3 5 5 10 8 5 20 10 25 10 6 0 3 -5 -5 -10z m-90 -30 c0 -5 -5
-10 -11 -10 -5 0 -7 5 -4 10 3 6 8 10 11 10 2 0 4 -4 4 -10z m-283 -26 c-3 -3
-12 -4 -19 -1 -8 3 -5 6 6 6 11 1 17 -2 13 -5z m47 -40 c0 -16 4 -20 20 -16
12 3 18 2 15 -2 -9 -10 -70 -26 -65 -17 3 4 -11 7 -31 7 -20 0 -31 -2 -25 -4
19 -6 1 -32 -23 -32 -15 0 -26 8 -30 20 -9 27 1 39 28 34 15 -2 28 3 37 17 21
28 75 23 74 -7z m-298 1 c-11 -8 -25 -15 -30 -15 -6 0 -2 7 8 15 11 8 25 15
30 15 6 0 2 -7 -8 -15z m-46 -23 c0 -4 -13 -12 -29 -18 l-28 -11 16 -52 c10
-31 22 -51 31 -51 8 0 -21 -16 -65 -35 -79 -35 -103 -43 -77 -26 12 7 11 11
-1 22 -9 8 -11 20 -6 29 13 25 23 54 23 69 1 8 28 29 61 47 64 35 75 39 75 26z
m90 -47 c7 -8 9 -15 4 -15 -5 0 -1 -5 9 -11 18 -11 14 -29 -6 -29 -7 0 -6 4 3
11 12 9 10 10 -8 6 -31 -7 -66 21 -50 40 14 17 33 16 48 -2z m-344 -90 c-11
-8 -25 -15 -30 -15 -6 1 0 7 14 15 32 19 40 18 16 0z m-77 -42 c-4 -26 3 -31
39 -27 31 4 33 3 15 -5 -25 -11 -32 -27 -8 -17 8 3 15 3 15 0 0 -3 -20 -14
-45 -25 -45 -20 -60 -33 -27 -23 9 3 -16 -12 -56 -33 l-74 -38 -18 23 c-10 12
-24 22 -32 21 -10 0 -10 -2 0 -6 13 -5 7 -23 -9 -23 -6 0 -7 5 -4 10 10 16 -7
12 -27 -7 -10 -9 -20 -14 -23 -11 -6 5 139 104 193 132 22 11 32 13 32 5 0
-14 14 -3 16 12 2 16 4 19 9 19 3 0 4 -3 4 -7z m-214 -203 c-3 -5 -12 -10 -18
-10 -7 0 -6 4 3 10 19 12 23 12 15 0z m-305 -175 c0 -6 -77 -53 -99 -60 -32
-10 -20 9 31 45 22 16 46 26 54 23 8 -3 14 -6 14 -8z"/>
<path d="M7625 3680 c-3 -5 -1 -10 4 -10 6 0 11 5 11 10 0 6 -2 10 -4 10 -3 0
-8 -4 -11 -10z"/>
<path d="M1988 3506 c-48 -81 -54 -95 -40 -101 59 -23 450 -160 567 -198 684
-222 1370 -367 2235 -472 436 -53 665 -84 750 -101 158 -33 260 -89 404 -223
169 -158 247 -196 389 -190 116 5 179 39 334 176 143 127 200 163 316 203 117
40 194 53 617 105 1364 169 1909 295 3037 700 8 3 -8 38 -44 100 l-55 95 -262
0 c-1087 -1 -1997 -122 -2751 -367 -504 -163 -843 -339 -1121 -582 l-90 -78
-65 59 c-423 386 -1115 661 -2079 827 -523 90 -1210 141 -1905 141 l-180 -1
-57 -93z"/>
</g>
</svg>
